<?xml version="1.0" encoding="utf-8"?>
<!-- Generator: Adobe Illustrator 27.9.0, SVG Export Plug-In . SVG Version: 6.00 Build 0)  -->
<svg version="1.1" id="Layer_1" xmlns="http://www.w3.org/2000/svg" xmlns:xlink="http://www.w3.org/1999/xlink" x="0px" y="0px"
	 viewBox="0 0 512 512" style="enable-background:new 0 0 512 512;" xml:space="preserve">
<style type="text/css">
	.st0{fill:#D3D3D3;}
</style>
<circle class="st0" cx="256" cy="272" r="64"/>
<path class="st0" d="M432,144h-59c-3,0-6.7-1.9-9.6-5l-25.9-40.9c-0.4-0.6-0.9-1.3-1.4-1.8C327.1,85.8,315,80,302,80h-92
	c-13,0-25.1,5.8-34.1,16.2c-0.5,0.6-1,1.2-1.4,1.8l-25.9,41c-2.2,2.4-5.3,5-8.6,5v-8c0-8.8-7.2-16-16-16h-24c-8.8,0-16,7.2-16,16v8
	h-4c-26.5,0-48,21.5-48,48V384c0,26.5,21.5,48,48,48h352c26.5,0,48-21.5,48-48V192C480,165.5,458.5,144,432,144z M256,368
	c-53,0-96-43-96-96s43-96,96-96s96,43,96,96C351.9,325,309,367.9,256,368z"/>
</svg>
