<?xml version="1.0" encoding="utf-8"?>
<!-- Generator: Adobe Illustrator 27.9.0, SVG Export Plug-In . SVG Version: 6.00 Build 0)  -->
<svg version="1.1" id="Layer_1" xmlns="http://www.w3.org/2000/svg" xmlns:xlink="http://www.w3.org/1999/xlink" x="0px" y="0px"
	 viewBox="0 0 512 512" style="enable-background:new 0 0 512 512;" xml:space="preserve">
<style type="text/css">
	.st0{fill:#D3D3D3;}
</style>
<path class="st0" d="M16,352c0,26.5,21.5,48,48,48h133.9l-4,32H144c-8.8,0-16,7.2-16,16s7.2,16,16,16h224c8.8,0,16-7.2,16-16
	s-7.2-16-16-16h-49.9l-4-32H448c26.5,0,48-21.5,48-48v-48H16V352z M256,336c8.8,0,16,7.2,16,16s-7.2,16-16,16c-8.8,0-16-7.2-16-16
	S247.2,336,256,336z M496,96c0-26.5-21.5-48-48-48H64c-26.5,0-48,21.5-48,48v192h480V96z"/>
</svg>
