<?xml version="1.0" encoding="utf-8"?>
<!-- Generator: Adobe Illustrator 27.9.0, SVG Export Plug-In . SVG Version: 6.00 Build 0)  -->
<svg version="1.1" id="Layer_1" xmlns="http://www.w3.org/2000/svg" xmlns:xlink="http://www.w3.org/1999/xlink" x="0px" y="0px"
	 viewBox="0 0 512 512" style="enable-background:new 0 0 512 512;" xml:space="preserve">
<style type="text/css">
	.st0{fill:#D3D3D3;}
</style>
<path class="st0" d="M416,64H96c-35.3,0-64,28.7-64,64v256c0,35.3,28.7,64,64,64h320c35.3,0,64-28.7,64-64V128
	C480,92.7,451.3,64,416,64z M336,128c26.5,0,48,21.5,48,48s-21.5,48-48,48s-48-21.5-48-48C288,149.5,309.5,128,336,128z M96,416
	c-17.7,0-32-14.3-32-32v-67.6l94.8-84.3c19-16.8,47.8-16,65.8,1.9l64.9,64.8L172.4,416H96z M448,384c0,17.7-14.3,32-32,32H217.6
	L339,294.6c17.8-15.1,43.8-15.2,61.6-0.2l47.3,39.4V384z"/>
</svg>
