<?xml version="1.0" encoding="utf-8"?>
<!-- Generator: Adobe Illustrator 27.9.0, SVG Export Plug-In . SVG Version: 6.00 Build 0)  -->
<svg version="1.1" id="Layer_1" xmlns="http://www.w3.org/2000/svg" xmlns:xlink="http://www.w3.org/1999/xlink" x="0px" y="0px"
	 viewBox="0 0 512 512" style="enable-background:new 0 0 512 512;" xml:space="preserve">
<style type="text/css">
	.st0{fill:#D3D3D3;}
</style>
<path class="st0" d="M464,384.4c-4.5,0-8.9-0.9-13-2.8c-1-0.4-1.9-0.9-2.7-1.5l-82.7-58.2c-8.5-6-13.6-15.8-13.6-26.2v-79.4
	c0-10.4,5.1-20.2,13.6-26.2l82.7-58.2c0.9-0.6,1.8-1.1,2.7-1.5c16.1-7.2,35.1,0.1,42.2,16.2c1.8,4.1,2.8,8.5,2.8,13v192.8
	C496,370.1,481.7,384.4,464,384.4L464,384.4z M268,400H84c-37.5,0-68-30.5-68-68V180c0-37.5,30.5-68,68-68h184.5
	c37.3,0,67.5,30.2,67.5,67.5V332C336,369.5,305.5,400,268,400z"/>
</svg>
